<svg
  xmlns="http://www.w3.org/2000/svg"
  viewBox="0 0 24 24"
  height="24"
  width="24"
>
  <g>
    <rect
      x="0"
      y="0"
      width="24"
      height="24"
      style="fill:rgb(94.117647%,94.117647%,94.117647%);fill-opacity:1;stroke:none;"
    />
    <path
      style=" stroke:none;fill-rule:nonzero;fill:rgb(84.705883%,0%,15.294118%);fill-opacity:1;"
      d="M 0 0 L 24 0 L 24 8 L 0 8 Z M 0 0 "
    />
    <path
      style=" stroke:none;fill-rule:nonzero;fill:rgb(0%,0%,0%);fill-opacity:1;"
      d="M 0 16 L 24 16 L 24 24 L 0 24 Z M 0 16 "
    />
    <path
      style=" stroke:none;fill-rule:nonzero;fill:rgb(100%,59.607846%,6.666667%);fill-opacity:1;"
      d="M 16.175781 10.78125 L 13.042969 10.78125 C 13.042969 10.207031 12.578125 9.738281 12 9.738281 C 11.421875 9.738281 10.957031 10.207031 10.957031 10.78125 L 7.824219 10.78125 C 7.824219 11.359375 8.328125 11.824219 8.902344 11.824219 L 8.871094 11.824219 C 8.871094 12.402344 9.335938 12.871094 9.914062 12.871094 C 9.914062 13.445312 10.378906 13.914062 10.957031 13.914062 L 13.042969 13.914062 C 13.621094 13.914062 14.085938 13.445312 14.085938 12.871094 C 14.664062 12.871094 15.128906 12.402344 15.128906 11.824219 L 15.09375 11.824219 C 15.671875 11.824219 16.175781 11.359375 16.175781 10.78125 Z M 16.175781 10.78125 "
    />
  </g>
</svg>
