<svg
  xmlns="http://www.w3.org/2000/svg"
  viewBox="0 0 24 24"
  height="24"
  width="24"
>
  <g>
    <rect
      x="0"
      y="0"
      width="24"
      height="24"
      style="fill:rgb(0%,0%,0%);fill-opacity:1;stroke:none;"
    />
    <path
      style=" stroke:none;fill-rule:nonzero;fill:rgb(64.705884%,85.09804%,6.27451%);fill-opacity:1;"
      d="M 14.496094 7.34375 C 14.496094 7.34375 8.496094 3.863281 5.304688 5.089844 C 2.136719 6.3125 4.945312 12.695312 5.808594 15.097656 C 6.695312 17.519531 7.246094 19.921875 7.246094 19.921875 C 7.246094 19.921875 8.425781 19.078125 13.609375 17.832031 C 18.769531 16.558594 19.992188 14.664062 19.992188 14.664062 C 22.078125 11.28125 14.496094 7.34375 14.496094 7.34375 Z M 14.328125 14.664062 C 13.390625 15.601562 9.625 17.734375 8.375 16.152344 C 6.984375 14.351562 7.34375 11.230469 7.34375 11.230469 C 7.632812 9.695312 9 9.433594 9 9.433594 C 9 9.433594 10.273438 8.785156 12.863281 10.441406 C 15.3125 12 15.097656 13.894531 14.328125 14.664062 Z M 14.328125 14.664062 "
    />
    <path
      style=" stroke:none;fill-rule:nonzero;fill:rgb(37.254903%,54.509807%,5.882353%);fill-opacity:1;"
      d="M 14.785156 6.601562 C 14.785156 6.601562 10.441406 4.078125 7.199219 4.078125 C 6.625 4.078125 6.097656 4.152344 5.617188 4.34375 C 4.894531 4.632812 4.488281 5.160156 4.296875 5.855469 C 3.625 8.257812 5.472656 12.503906 6.144531 14.375 C 6.984375 16.800781 7.535156 19.199219 7.535156 19.199219 C 7.535156 19.199219 8.710938 18.359375 13.894531 17.113281 C 18.433594 16.007812 19.921875 14.398438 20.230469 14.039062 C 20.28125 13.992188 20.28125 13.96875 20.28125 13.96875 C 22.367188 10.558594 14.785156 6.601562 14.785156 6.601562 Z M 16.199219 14.304688 C 14.855469 15.671875 10.894531 16.921875 10.894531 16.921875 C 10.894531 16.921875 10.105469 17.28125 9.335938 17.28125 C 8.878906 17.28125 8.425781 17.136719 8.207031 16.703125 C 7.65625 15.601562 7.34375 14.542969 7.34375 14.542969 C 6.40625 11.496094 6.527344 9.335938 6.527344 9.335938 C 6.71875 7.585938 8.015625 7.152344 9.238281 7.152344 C 10.390625 7.152344 11.449219 7.535156 11.449219 7.535156 C 15.046875 8.664062 16.609375 11.089844 16.609375 11.089844 C 16.609375 11.089844 17.617188 12.886719 16.199219 14.304688 Z M 16.199219 14.304688 "
    />
  </g>
</svg>
