<svg
  xmlns="http://www.w3.org/2000/svg"
  viewBox="0 0 24 24"
  height="24"
  width="24"
>
  <g>
    <rect
      x="0"
      y="0"
      width="24"
      height="24"
      style="fill:rgb(100%,40.000001%,0%);fill-opacity:1;stroke:none;"
    />
    <path
      style=" stroke:none;fill-rule:nonzero;fill:rgb(100%,100%,100%);fill-opacity:1;"
      d="M 4.96875 10.320312 C 4.246094 10.320312 3.601562 10.777344 3.601562 11.761719 C 3.601562 12.742188 4.246094 13.199219 4.96875 13.199219 C 5.6875 13.199219 6.335938 12.742188 6.335938 11.761719 C 6.335938 10.777344 5.6875 10.320312 4.96875 10.320312 Z M 4.96875 12.574219 C 4.414062 12.574219 4.320312 12.097656 4.320312 11.734375 C 4.320312 11.398438 4.414062 10.894531 4.96875 10.894531 C 5.519531 10.894531 5.617188 11.375 5.617188 11.734375 C 5.617188 12.097656 5.519531 12.574219 4.96875 12.574219 Z M 7.511719 10.703125 L 7.511719 10.390625 L 6.816406 10.390625 L 6.816406 13.105469 L 7.558594 13.105469 L 7.558594 11.304688 C 7.679688 11.0625 8.015625 11.015625 8.328125 11.015625 L 8.351562 11.015625 L 8.351562 10.34375 C 8.328125 10.34375 8.28125 10.34375 8.257812 10.34375 C 7.96875 10.34375 7.65625 10.535156 7.511719 10.703125 Z M 9.886719 10.320312 C 9.359375 10.320312 8.976562 10.488281 8.710938 10.847656 L 9.191406 11.113281 C 9.359375 10.921875 9.574219 10.800781 9.863281 10.800781 C 10.152344 10.800781 10.296875 10.921875 10.296875 11.113281 L 10.296875 11.28125 C 9.121094 11.398438 8.566406 11.734375 8.566406 12.335938 C 8.566406 12.792969 8.878906 13.128906 9.382812 13.128906 C 9.71875 13.128906 10.007812 13.03125 10.296875 12.863281 L 10.367188 13.105469 L 11.015625 13.105469 L 11.015625 11.136719 C 11.015625 10.632812 10.609375 10.320312 9.886719 10.320312 Z M 10.296875 12.359375 C 10.078125 12.550781 9.839844 12.648438 9.625 12.648438 C 9.40625 12.648438 9.289062 12.480469 9.289062 12.289062 C 9.289062 11.976562 9.601562 11.785156 10.296875 11.710938 Z M 13.199219 10.320312 C 12.863281 10.320312 12.601562 10.441406 12.265625 10.703125 L 12.191406 10.390625 L 11.59375 10.464844 L 11.59375 13.105469 L 12.3125 13.105469 L 12.3125 11.160156 C 12.550781 10.945312 12.769531 10.847656 12.984375 10.847656 C 13.246094 10.847656 13.34375 10.992188 13.34375 11.328125 L 13.34375 13.105469 L 14.0625 13.105469 L 14.0625 11.207031 C 14.0625 10.632812 13.777344 10.320312 13.199219 10.320312 Z M 16.464844 10.679688 C 16.414062 10.558594 16.199219 10.320312 15.671875 10.320312 C 15.097656 10.320312 14.566406 10.824219 14.566406 11.734375 C 14.566406 12.648438 15.070312 13.105469 15.71875 13.105469 C 16.152344 13.105469 16.320312 12.910156 16.441406 12.695312 L 16.441406 13.007812 C 16.441406 13.441406 16.246094 13.609375 15.886719 13.609375 C 15.480469 13.609375 15.40625 13.464844 15.359375 13.34375 L 14.640625 13.464844 C 14.734375 13.921875 15.238281 14.136719 15.792969 14.136719 C 17.113281 14.136719 17.136719 13.367188 17.136719 12.9375 L 17.136719 10.367188 L 16.511719 10.367188 Z M 15.839844 12.527344 C 15.3125 12.527344 15.289062 11.976562 15.289062 11.640625 C 15.289062 11.015625 15.574219 10.847656 15.839844 10.847656 C 16.222656 10.847656 16.441406 11.183594 16.441406 11.617188 C 16.441406 11.976562 16.390625 12.527344 15.839844 12.527344 Z M 18.863281 10.320312 C 18.070312 10.320312 17.566406 10.824219 17.566406 11.734375 C 17.566406 12.625 18.046875 13.152344 18.863281 13.152344 C 19.441406 13.152344 19.847656 12.960938 20.089844 12.574219 L 19.558594 12.289062 C 19.390625 12.527344 19.199219 12.625 18.9375 12.625 C 18.503906 12.625 18.289062 12.359375 18.289062 11.855469 L 20.136719 11.855469 C 20.136719 11.808594 20.136719 11.761719 20.136719 11.710938 C 20.136719 10.824219 19.65625 10.320312 18.863281 10.320312 Z M 18.289062 11.375 C 18.3125 11.015625 18.527344 10.800781 18.839844 10.800781 C 19.175781 10.800781 19.390625 11.015625 19.390625 11.375 Z M 21.359375 9.359375 L 21.097656 10.03125 L 20.832031 9.359375 L 20.59375 9.359375 L 20.59375 10.246094 L 20.734375 10.246094 L 20.734375 9.503906 L 21.023438 10.246094 L 21.121094 10.246094 L 21.40625 9.503906 L 21.40625 10.246094 L 21.601562 10.246094 L 21.601562 9.359375 Z M 19.679688 9.480469 L 19.96875 9.480469 L 19.96875 10.246094 L 20.113281 10.246094 L 20.113281 9.480469 L 20.398438 9.480469 L 20.398438 9.359375 L 19.679688 9.359375 Z M 19.679688 9.480469 "
    />
  </g>
</svg>
