<svg
  xmlns="http://www.w3.org/2000/svg"
  viewBox="0 0 24 24"
  height="24"
  width="24"
>
  <g>
    <rect
      x="0"
      y="0"
      width="24"
      height="24"
      style="fill:rgb(88.235295%,6.666667%,9.019608%);fill-opacity:1;stroke:none;"
    />
    <path
      style=" stroke:none;fill-rule:nonzero;fill:rgb(100%,100%,100%);fill-opacity:1;"
      d="M 15.503906 4.246094 C 13.96875 4.585938 12.792969 5.953125 12.792969 7.585938 L 12.792969 7.703125 C 15.238281 8.230469 16.464844 9.863281 16.464844 12 C 16.464844 14.425781 14.472656 16.390625 12.023438 16.390625 C 9.574219 16.390625 7.296875 14.375 7.296875 11.375 C 7.296875 7.726562 10.464844 4.296875 14.976562 4.175781 L 15.3125 4.175781 C 14.328125 3.792969 13.246094 3.601562 12.121094 3.601562 C 7.273438 3.601562 3.359375 7.367188 3.359375 12 C 3.359375 16.632812 7.273438 20.398438 12.121094 20.398438 C 16.96875 20.398438 20.878906 16.632812 20.878906 12 C 20.878906 8.519531 18.648438 5.519531 15.503906 4.246094 Z M 15.503906 4.246094 "
    />
  </g>
</svg>
