<svg
  xmlns="http://www.w3.org/2000/svg"
  viewBox="0 0 24 24"
  height="24"
  width="24"
>
  <rect y="-0.1" width="24" height="24.1" style="fill: #FFFFFF;" />
  <path
    d="M9.9,3.9c0.2,0.2,1.5,1,1.6,2.4c0.1,1-0.5,1.8-0.9,2.5c-0.4,0.5-0.6,0.7-1,1.2c-0.3,0.3-1.3,1.5-1.8,3.1
c-0.2,0.7-0.7,2.2-0.1,3.9c0.1,0.4,0.7,1.8,2.2,2.6c0.9,0.5,1.7,0.5,2.1,0.5c0.5,0,1,0.1,1.8-0.2c0.2-0.1,1-0.4,1.7-1.2
c0.5-0.6,0.7-1.2,0.8-1.5c-0.2,0.2-0.5,0.3-0.8,0.5c-1.4,0.6-2.8,0-3,0c-0.3-0.1-0.7-0.3-1.2-0.8c-0.3-0.3-0.5-0.7-0.6-0.9
c0.1-0.2,0.2-0.5,0.5-0.9c0.4-0.6,0.8-0.8,1.4-1.5c0.2-0.2,0.6-0.6,1.1-1.2c0.5-0.6,0.9-1.2,1.2-1.9c0.2-0.4,0.5-1.4,0.4-2.6
c0-0.3-0.1-1-0.6-1.8C14,5,13.1,4.5,12.8,4.4C11.6,3.7,10.4,3.8,9.9,3.9z"
    style="fill: #6F3290;"
  />
  <path
    d="M9.6,9.9c-0.3,0.3-1.2,1.5-1.7,3c0,0,0,0,0,0c0.4-0.8,0.9-1.3,1.5-1.9c0.6-0.5,1.7-1.6,3.3-2.4
c0.3-0.2,0.9-0.4,1.5-1c0.5-0.5,0.6-0.9,0.6-1c0-0.1,0-0.2,0-0.3c-0.1-0.1-0.1-0.3-0.2-0.4c-0.6-0.9-1.4-1.4-1.8-1.5
c-1.2-0.6-2.4-0.5-2.9-0.5c0.2,0.2,1.5,1,1.6,2.4c0.1,1-0.5,1.8-0.9,2.5C10.2,9.3,10,9.4,9.6,9.9z"
    style="fill: #9159A4;"
  />
  <g>
    <path
      d="M15.3,17.6c-1.4,0.6-2.8,0-3,0c-0.3-0.1-0.7-0.3-1.2-0.8c-0.3-0.3-0.5-0.8-0.4-1.3c-0.1,0.1-0.3,0.6-0.4,0.8
c-0.2,0.8,0.1,1.7,0.2,1.9c0.4,0.8,1,1.2,1.2,1.3c0.5,0.3,1,0.4,1.2,0.4c0.1,0,0.2,0,0.3,0c0.1,0,0.1,0,0.2-0.1
c0.2-0.1,1-0.4,1.7-1.2c0.5-0.6,0.7-1.2,0.8-1.5C15.9,17.3,15.6,17.4,15.3,17.6z"
      style="fill: #9A4F9F;"
    />
  </g>
</svg>
