<svg width="90" height="16" viewBox="0 0 90 16" fill="none" xmlns="http://www.w3.org/2000/svg">
<path d="M19.8538 6.62384H17.2853V12.7207H14.3803V6.62384H11.7994V4.4918H19.8538V6.62384ZM24.317 6.36201C24.6079 6.36201 24.8241 6.41188 24.9654 6.51162L24.7285 8.85561C24.6537 8.79743 24.5456 8.75171 24.4043 8.71847C24.263 8.67691 24.1092 8.65613 23.943 8.65613C23.5606 8.65613 23.2572 8.74756 23.0328 8.93042C22.8167 9.11329 22.7086 9.37927 22.7086 9.72838V12.7207H19.841V6.48669H22.4219L22.4842 8.04519C22.7835 6.92307 23.3944 6.36201 24.317 6.36201ZM31.9142 9.40421C31.9142 9.72006 31.8935 9.96942 31.8519 10.1523H27.8871C27.9286 10.4598 28.0159 10.6676 28.1489 10.7757C28.2819 10.8837 28.4814 10.9378 28.7474 10.9378C29.1546 10.9378 29.404 10.7591 29.4954 10.4016L31.802 11.0251C31.6607 11.6235 31.3116 12.0765 30.7547 12.3841C30.2061 12.6916 29.537 12.8454 28.7474 12.8454C27.5671 12.8454 26.6694 12.5669 26.0543 12.01C25.4475 11.4531 25.1441 10.651 25.1441 9.6037C25.1441 8.57301 25.4433 7.77505 26.0418 7.20983C26.6486 6.64462 27.5006 6.36201 28.5977 6.36201C29.67 6.36201 30.4887 6.6363 31.0539 7.1849C31.6275 7.73349 31.9142 8.47326 31.9142 9.40421ZM28.6102 8.25715C28.3941 8.25715 28.2279 8.31949 28.1115 8.44417C27.9951 8.56885 27.9203 8.78496 27.8871 9.09251H29.2336C29.2087 8.8099 29.1463 8.6021 29.0466 8.4691C28.9552 8.3278 28.8097 8.25715 28.6102 8.25715ZM37.4626 6.36201C38.0777 6.36201 38.5556 6.54487 38.8964 6.9106C39.2455 7.27633 39.4201 7.79168 39.4201 8.45664V12.7207H36.5524V9.20472C36.5524 8.93042 36.5192 8.7434 36.4527 8.64366C36.3862 8.5356 36.274 8.48157 36.1161 8.48157C35.9083 8.48157 35.7545 8.56054 35.6547 8.71847C35.5633 8.87639 35.5176 9.1216 35.5176 9.45408V12.7207H32.6499V6.48669H35.2308L35.2932 7.8457C35.476 7.36361 35.7503 6.99788 36.1161 6.74852C36.4818 6.49084 36.9306 6.36201 37.4626 6.36201ZM47.2265 3.99308V12.7207H44.6457L44.5584 11.4864C44.3755 11.9103 44.1178 12.2428 43.7854 12.4838C43.4529 12.7249 43.0539 12.8454 42.5884 12.8454C41.8237 12.8454 41.2336 12.5669 40.818 12.01C40.4107 11.4531 40.207 10.6635 40.207 9.6411C40.207 8.6021 40.4148 7.79583 40.8304 7.2223C41.2544 6.64877 41.8445 6.36201 42.6009 6.36201C43.0248 6.36201 43.3822 6.46591 43.6731 6.67371C43.9641 6.88151 44.1927 7.16827 44.3589 7.534V3.99308H47.2265ZM43.748 10.838C43.9474 10.838 44.0971 10.7466 44.1968 10.5637C44.3049 10.3726 44.3589 10.0692 44.3589 9.65357V9.55382C44.3589 9.15485 44.309 8.85977 44.2093 8.66859C44.1095 8.47742 43.9558 8.38183 43.748 8.38183C43.5318 8.38183 43.3698 8.4691 43.2617 8.64366C43.1536 8.81821 43.0996 9.13822 43.0996 9.6037C43.0996 10.0692 43.1536 10.3933 43.2617 10.5762C43.3698 10.7508 43.5318 10.838 43.748 10.838ZM50.1684 8.07013H48.3356V4.36712H50.5674L50.1684 8.07013ZM56.2499 6.36201C56.865 6.36201 57.3429 6.54487 57.6837 6.9106C58.0328 7.27633 58.2074 7.79168 58.2074 8.45664V12.7207H55.3397V9.20472C55.3397 8.93042 55.3065 8.7434 55.24 8.64366C55.1735 8.5356 55.0613 8.48157 54.9033 8.48157C54.6955 8.48157 54.5418 8.56054 54.442 8.71847C54.3506 8.87639 54.3049 9.1216 54.3049 9.45408V12.7207H51.4372V6.48669H54.0181L54.0804 7.8457C54.2633 7.36361 54.5376 6.99788 54.9033 6.74852C55.2691 6.49084 55.7179 6.36201 56.2499 6.36201ZM65.3002 12.7207H63.3703L63.3825 11.2961H65.3002C65.7791 11.2961 66.1829 11.1886 66.5117 10.9735C66.8404 10.7543 67.088 10.4357 67.2544 10.0177C67.4248 9.59964 67.5101 9.09434 67.5101 8.50178V8.06954C67.5101 7.61498 67.4614 7.21521 67.364 6.87023C67.2706 6.52524 67.1306 6.23505 66.9439 5.99966C66.7572 5.76426 66.5279 5.58771 66.256 5.47001C65.984 5.34825 65.6715 5.28737 65.3184 5.28737H63.3338V3.85671H65.3184C65.911 3.85671 66.4528 3.95818 66.9439 4.16111C67.4391 4.35998 67.8672 4.64611 68.2284 5.0195C68.5897 5.39289 68.8677 5.83934 69.0625 6.35884C69.2614 6.87428 69.3608 7.44858 69.3608 8.08172V8.50178C69.3608 9.13087 69.2614 9.70516 69.0625 10.2247C68.8677 10.7442 68.5897 11.1906 68.2284 11.564C67.8713 11.9333 67.4431 12.2195 66.9439 12.4224C66.4488 12.6213 65.9008 12.7207 65.3002 12.7207ZM64.4052 3.85671V12.7207H62.5789V3.85671H64.4052ZM74.1337 11.2353V8.30088C74.1337 8.08984 74.0992 7.90923 74.0302 7.75906C73.9612 7.60483 73.8537 7.4851 73.7076 7.39987C73.5655 7.31464 73.3808 7.27203 73.1536 7.27203C72.9588 7.27203 72.7903 7.30653 72.6483 7.37552C72.5062 7.44046 72.3966 7.53584 72.3195 7.66165C72.2424 7.78341 72.2039 7.92749 72.2039 8.0939H70.4505C70.4505 7.81385 70.5155 7.54801 70.6453 7.29638C70.7752 7.04475 70.9639 6.82355 71.2115 6.6328C71.4591 6.43798 71.7533 6.28579 72.0943 6.1762C72.4392 6.06662 72.8248 6.01183 73.251 6.01183C73.7624 6.01183 74.2169 6.09706 74.6147 6.26752C75.0124 6.43798 75.3249 6.69368 75.5522 7.0346C75.7835 7.37552 75.8992 7.80168 75.8992 8.31306V11.1318C75.8992 11.493 75.9215 11.7893 75.9662 12.0206C76.0108 12.2479 76.0758 12.4467 76.161 12.6172V12.7207H74.3894C74.3042 12.5421 74.2392 12.3189 74.1946 12.051C74.154 11.7791 74.1337 11.5072 74.1337 11.2353ZM74.3651 8.70877L74.3772 9.7011H73.3971C73.1657 9.7011 72.9648 9.72748 72.7944 9.78024C72.6239 9.83301 72.4839 9.90809 72.3743 10.0055C72.2647 10.0988 72.1836 10.2084 72.1308 10.3342C72.0821 10.4601 72.0577 10.5981 72.0577 10.7482C72.0577 10.8984 72.0922 11.0344 72.1612 11.1561C72.2302 11.2738 72.3297 11.3672 72.4595 11.4362C72.5894 11.5011 72.7416 11.5336 72.9161 11.5336C73.1799 11.5336 73.4093 11.4808 73.6041 11.3753C73.7989 11.2698 73.949 11.1399 74.0546 10.9857C74.1642 10.8314 74.221 10.6853 74.225 10.5473L74.6877 11.29C74.6228 11.4564 74.5335 11.6289 74.4198 11.8075C74.3103 11.9861 74.1702 12.1545 73.9998 12.3128C73.8293 12.467 73.6244 12.5949 73.3849 12.6964C73.1454 12.7938 72.8613 12.8425 72.5326 12.8425C72.1146 12.8425 71.7351 12.7593 71.3942 12.5929C71.0573 12.4224 70.7894 12.189 70.5906 11.8927C70.3957 11.5924 70.2983 11.2515 70.2983 10.87C70.2983 10.525 70.3633 10.2186 70.4931 9.95071C70.623 9.68284 70.8138 9.45759 71.0654 9.27495C71.3211 9.08825 71.6397 8.94823 72.0212 8.85488C72.4027 8.75748 72.8451 8.70877 73.3484 8.70877H74.3651ZM79.1014 6.13359V12.7207H77.342V6.13359H79.1014ZM77.2325 4.4168C77.2325 4.16111 77.3217 3.95006 77.5003 3.78366C77.6789 3.61726 77.9184 3.53405 78.2187 3.53405C78.515 3.53405 78.7524 3.61726 78.931 3.78366C79.1136 3.95006 79.2049 4.16111 79.2049 4.4168C79.2049 4.67249 79.1136 4.88354 78.931 5.04994C78.7524 5.21635 78.515 5.29955 78.2187 5.29955C77.9184 5.29955 77.6789 5.21635 77.5003 5.04994C77.3217 4.88354 77.2325 4.67249 77.2325 4.4168ZM82.4011 3.36968V12.7207H80.6417V3.36968H82.4011ZM85.8042 11.978L87.5515 6.13359H89.4326L86.7844 13.713C86.7276 13.8794 86.6504 14.058 86.553 14.2488C86.4597 14.4395 86.3318 14.6201 86.1695 14.7906C86.0112 14.9651 85.8103 15.1072 85.5668 15.2167C85.3273 15.3263 85.0331 15.3811 84.6841 15.3811C84.5177 15.3811 84.3817 15.371 84.2762 15.3507C84.1706 15.3304 84.0448 15.302 83.8987 15.2654V13.9809C83.9434 13.9809 83.99 13.9809 84.0387 13.9809C84.0874 13.985 84.1341 13.987 84.1788 13.987C84.4101 13.987 84.5988 13.9606 84.7449 13.9078C84.891 13.8551 85.0087 13.7739 85.098 13.6643C85.1873 13.5588 85.2583 13.4208 85.3111 13.2504L85.8042 11.978ZM85.0737 6.13359L86.5043 10.9065L86.7539 12.7633L85.5607 12.8912L83.1925 6.13359H85.0737Z" fill="white"/>
<rect y="3.97131" width="8.29227" height="8.27443" rx="0.791467" fill="white"/>
<path d="M4.25249 7.29525H3.13893V9.9386H1.87942V7.29525H0.760456V6.37088H4.25249V7.29525ZM5.77337 9.9386H4.99586L5.00077 9.36466H5.77337C5.96632 9.36466 6.12902 9.32133 6.26146 9.23467C6.39391 9.14637 6.49365 9.01801 6.56069 8.84959C6.62937 8.68117 6.66371 8.4776 6.66371 8.23887V8.06473C6.66371 7.88159 6.64409 7.72053 6.60484 7.58154C6.56723 7.44255 6.51082 7.32564 6.43561 7.2308C6.36039 7.13596 6.268 7.06484 6.15845 7.01742C6.04889 6.96836 5.92299 6.94384 5.78073 6.94384H4.98115V6.36745H5.78073C6.01946 6.36745 6.23775 6.40833 6.43561 6.49008C6.63509 6.57021 6.8076 6.68548 6.95313 6.83592C7.09866 6.98635 7.21066 7.16621 7.28915 7.37551C7.36927 7.58318 7.40933 7.81455 7.40933 8.06963V8.23887C7.40933 8.49232 7.36927 8.72369 7.28915 8.93299C7.21066 9.14228 7.09866 9.32215 6.95313 9.47258C6.80924 9.62138 6.63673 9.73666 6.43561 9.81842C6.23612 9.89854 6.01537 9.9386 5.77337 9.9386ZM5.41282 6.36745V9.9386H4.67701V6.36745H5.41282Z" fill="#2A62C3"/>
</svg>
