<svg version="1.1" id="Layer_1" xmlns="http://www.w3.org/2000/svg" x="0" y="0" width="82.3" height="81.8" xml:space="preserve"><style>.st0{fill:#176eec}</style><path class="st0" d="M41.1.4C18.8.4.6 18.6.6 40.9s18.2 40.5 40.5 40.5 40.5-18.2 40.5-40.5S63.5.4 41.1.4zm0 8C59 8.4 73.6 23 73.6 40.9c0 7.2-2.3 13.8-6.3 19.2-7.3-6.2-16.5-9.7-26.2-9.7-9.6 0-19 3.5-26.2 9.7-3.9-5.4-6.3-12-6.3-19.2C8.6 23 23.2 8.4 41.1 8.4zM20.4 65.9c5.8-4.9 13-7.5 20.8-7.5 7.7 0 14.9 2.6 20.8 7.5-5.6 4.7-12.9 7.5-20.8 7.5S26 70.6 20.4 65.9z"/><path class="st0" d="M41.1 46.4c8.5 0 15.5-7 15.5-15.5s-7-15.5-15.5-15.5-15.5 7-15.5 15.5 7 15.5 15.5 15.5zm0-23c4.1 0 7.5 3.4 7.5 7.5s-3.4 7.5-7.5 7.5-7.5-3.4-7.5-7.5 3.4-7.5 7.5-7.5z"/></svg>